<svg width="22" height="24" viewBox="0 0 22 24" fill="none" xmlns="http://www.w3.org/2000/svg">
<path d="M9.60776 0.333374C9.00459 0.333374 8.42832 0.571739 8.00132 0.998739L7.50001 1.50004H1.66668C1.51208 1.49785 1.35859 1.52642 1.21513 1.58407C1.07167 1.64171 0.941093 1.7273 0.830995 1.83585C0.720897 1.94441 0.633472 2.07376 0.5738 2.21639C0.514127 2.35902 0.483398 2.51209 0.483398 2.66671C0.483398 2.82132 0.514127 2.97439 0.5738 3.11702C0.633472 3.25966 0.720897 3.38901 0.830995 3.49756C0.941093 3.60611 1.07167 3.6917 1.21513 3.74935C1.35859 3.807 1.51208 3.83556 1.66668 3.83337H20.3333C20.4879 3.83556 20.6414 3.807 20.7849 3.74935C20.9284 3.6917 21.0589 3.60611 21.169 3.49756C21.2791 3.38901 21.3666 3.25966 21.4262 3.11702C21.4859 2.97439 21.5166 2.82132 21.5166 2.66671C21.5166 2.51209 21.4859 2.35902 21.4262 2.21639C21.3666 2.07376 21.2791 1.94441 21.169 1.83585C21.0589 1.7273 20.9284 1.64171 20.7849 1.58407C20.6414 1.52642 20.4879 1.49785 20.3333 1.50004H14.5L13.9987 0.998739C13.5729 0.571739 12.9954 0.333374 12.3923 0.333374H9.60776ZM2.09279 6.16671L3.87469 21.641C4.02869 22.796 5.02318 23.6667 6.18751 23.6667H15.8102C16.9746 23.6667 17.9702 22.7974 18.1253 21.6319L19.9072 6.16671H2.09279Z" fill="#6C6C6C"/>
</svg>
